<svg xmlns="http://www.w3.org/2000/svg" width="166" height="30" viewBox="0 0 166 30" fill="none"><g clip-path="url(#clip0_321_1626)"><path d="M18.6271 22.8737L14.967 24.6719V11.1712L18.6271 9.373V22.8737ZM23.5958 20.4333L19.9358 22.2315V8.73079L23.5958 6.9326V20.4333ZM24.9045 19.7911V6.29039L28.5645 4.49219V17.9929L24.9045 19.7911Z" fill="white"></path><path d="M13.6871 21.0327V24.6648L0.0968018 17.9929V14.3609L13.6871 21.0327ZM13.6871 16.0948V19.7269L0.0968018 13.055V9.42295L13.6871 16.0948ZM13.6871 11.1641V14.7961L0.0968018 8.12426V4.49219L13.6871 11.1641Z" fill="white"></path><path d="M37.2087 0.212891V21.0628H47.877C52.8809 21.0628 56.0779 18.8041 56.0779 15.2249C56.0779 12.5839 54.4447 10.4989 51.8732 9.97765C54.0277 9.35215 55.4177 7.5799 55.4177 5.4949C55.4177 2.29791 52.2902 0.247674 47.4252 0.247674H37.2087V0.212891ZM43.3595 4.86939H47.1125C48.3287 4.86939 49.0932 5.52963 49.0932 6.60688C49.0932 7.71888 48.3287 8.4139 47.1125 8.4139H43.3595V4.86939ZM43.3595 12.6186H47.1125C48.6762 12.6186 49.684 13.3136 49.684 14.4604C49.684 15.6766 48.711 16.4411 47.1125 16.4411H43.3595V12.6186Z" fill="white"></path><path d="M65.9816 0.212891H59.7961V21.0628H65.9816V0.212891Z" fill="white"></path><path d="M85.7559 5.1474V0.212891H69.7362V5.1474H74.6359V21.0628H80.8562V5.1474H85.7559Z" fill="white"></path><path d="M99.1502 0.0390625C92.6868 0.0390625 87.926 4.52181 87.926 10.603C87.926 16.7538 92.5825 21.3408 98.9417 21.3408C102.104 21.3408 105.509 19.777 107.768 17.3098L104.189 13.4873C102.764 14.9468 100.818 15.8851 99.2197 15.8851C96.405 15.8851 94.2505 13.5568 94.2505 10.4988C94.2505 7.44083 96.405 5.14732 99.2197 5.14732C100.957 5.14732 102.868 6.25932 104.189 7.92732L107.768 3.72259C105.648 1.46384 102.278 0.0390625 99.1502 0.0390625Z" fill="white"></path><path d="M120.66 0.0390625C114.127 0.0390625 109.297 4.48705 109.297 10.6378C109.297 16.7885 114.127 21.3408 120.66 21.3408C127.193 21.3408 132.024 16.7538 132.024 10.6378C132.024 4.5218 127.193 0.0390625 120.66 0.0390625ZM120.765 5.21681C123.51 5.21681 125.699 7.51033 125.699 10.6726C125.699 13.8348 123.51 16.163 120.765 16.163C118.019 16.163 115.656 13.8001 115.656 10.6726C115.656 7.54508 117.985 5.21681 120.765 5.21681Z" fill="white"></path><path d="M141.719 0.212891H135.533V21.0628H141.719V0.212891Z" fill="white"></path><path d="M165.224 21.0628V0.212891H159.56V11.8541L150.733 0.212891H145.451V21.0628H151.115V9.4564L159.942 21.0628H165.224Z" fill="white"></path><path d="M43.1069 29.9162V24.7246H41.2829L40.1403 27.4306L38.9978 24.7246H37.1737V29.9162H38.6771V27.0698L39.559 29.415H40.6815L41.5635 27.0698V29.9162H43.1069Z" fill="white"></path><path d="M47.6771 29.194L47.9376 29.9357H49.7617L47.657 24.7441H45.8931L43.7083 29.9357H45.4722L45.7327 29.194H47.6771ZM47.2561 27.9513H46.1737L46.7149 26.4279L47.2561 27.9513Z" fill="white"></path><path d="M53.5702 27.1897V28.3924C53.3096 28.4926 53.0691 28.5728 52.8887 28.5728C52.2072 28.5728 51.7261 28.0516 51.7261 27.33C51.7261 26.6284 52.2072 26.1073 52.8887 26.1073C53.3096 26.1073 53.8308 26.3278 54.1715 26.6485L55.1337 25.4658C54.5724 24.9848 53.6905 24.6641 52.8887 24.6641C51.1849 24.6641 49.9622 25.7866 49.9622 27.31C49.9622 28.8534 51.1448 29.9759 52.7684 29.9759C53.51 29.9759 54.4722 29.6953 55.0334 29.3144V27.1696H53.5702V27.1897Z" fill="white"></path><path d="M59.5034 29.194L59.7639 29.9357H61.588L59.4833 24.7441H57.7194L55.5345 29.9357H57.2985L57.559 29.194H59.5034ZM59.0824 27.9513H58L58.5412 26.4279L59.0824 27.9513Z" fill="white"></path><path d="M66.6794 25.807V24.7246H62.0491V26.0475H64.3742L61.9489 28.8538V29.9362H66.7195V28.6133H64.254L66.6794 25.807Z" fill="white"></path><path d="M69.2651 24.7246H67.5413V29.9162H69.2651V24.7246Z" fill="white"></path><path d="M75.3386 29.9162V24.7246H73.7951V27.3905L71.7506 24.7246H70.3074V29.9162H71.8709V27.2703L73.9154 29.9162H75.3386Z" fill="white"></path><path d="M80.7706 26.0275V24.7246H76.3809V29.9162H80.8508V28.6133H78.1047V27.9718H80.5301V26.6689H78.1047V26.0275H80.7706Z" fill="white"></path></g><defs><clipPath id="clip0_321_1626"><rect width="165.413" height="30" fill="white"></rect></clipPath></defs></svg>